<svg xmlns="http://www.w3.org/2000/svg" viewBox="0 0 8.38 8.38"><title>github</title>
  <g id="Layer_2" data-name="Layer 2">
  <g id="Layer_1-2" data-name="Layer 1">
    <circle class="background-circle" cx="4.19" cy="4.19" r="4.19"/>
    <path class="github" d="M3.11,2.38a2.17,2.17,0,0,1,2.16,0,2.14,2.14,0,0,1,.78.78,2.16,2.16,0,0,1-.12,2.35,2.11,2.11,0,0,1-1.06.78.13.13,0,0,1-.11,0,.11.11,0,0,1,0-.08V6q0-.21,0-.38a.5.5,0,0,0-.15-.4l.29-.05A1.15,1.15,0,0,0,5.13,5a.79.79,0,0,0,.23-.19.87.87,0,0,0,.15-.29,1.41,1.41,0,0,0,.06-.42.83.83,0,0,0-.22-.58.75.75,0,0,0,0-.57.37.37,0,0,0-.23,0,1.51,1.51,0,0,0-.26.12l-.11.07a2,2,0,0,0-1.08,0l-.12-.08L3.3,3a.39.39,0,0,0-.24,0,.75.75,0,0,0,0,.57.83.83,0,0,0-.22.58,1.4,1.4,0,0,0,.06.42A.91.91,0,0,0,3,4.85.75.75,0,0,0,3.25,5a1.15,1.15,0,0,0,.26.11l.29.05a.47.47,0,0,0-.14.29l-.13,0H3.37a.33.33,0,0,1-.18-.06A.49.49,0,0,1,3,5.3a.45.45,0,0,0-.14-.15.41.41,0,0,0-.14-.07H2.62s0,0,0,0l0,0,0,0h0a.34.34,0,0,1,.12.11.71.71,0,0,1,.09.14l0,.06a.36.36,0,0,0,.12.17.44.44,0,0,0,.19.08l.19,0h.22q0,.11,0,.25v.15a.11.11,0,0,1,0,.08.13.13,0,0,1-.11,0A2.15,2.15,0,0,1,2,4.24a2.11,2.11,0,0,1,.29-1.08A2.14,2.14,0,0,1,3.11,2.38Zm-.26,2.8s0,0,0,0h0s0,0,0,0S2.85,5.2,2.85,5.18Zm.09.1s0,0,0,0,0,0,0,0,0,0,0,0S2.93,5.29,2.94,5.28ZM3,5.4s0,0,0-.05,0,0,0,0,0,0,0,.05S3,5.42,3,5.4Zm.12.12s0,0,0-.05,0,0-.06,0,0,0,0,.05S3.13,5.54,3.14,5.52Zm.16.07s0,0,0,0,0,0-.05,0,0,0,0,0S3.29,5.61,3.3,5.59Zm.18,0s0,0,0,0,0,0,0,0,0,0,0,0S3.48,5.63,3.48,5.61Zm.16,0s0,0-.05,0,0,0,0,0,0,0,.05,0S3.64,5.6,3.64,5.58Z"/>
  </g>
  </g>
</svg>
