<svg xmlns="http://www.w3.org/2000/svg" viewBox="0 0 8.38 8.38"><title>linkedin</title>
  <g id="Layer_2" data-name="Layer 2">
  <g id="Layer_1-2" data-name="Layer 1">
    <circle class="background-circle" cx="4.19" cy="4.19" r="4.19"/>
    <path class="linkedin" d="M3.07,2.61A.44.44,0,0,1,2.93,3a.53.53,0,0,1-.38.14h0A.51.51,0,0,1,2.18,3,.46.46,0,0,1,2,2.61a.45.45,0,0,1,.14-.34.53.53,0,0,1,.38-.14.51.51,0,0,1,.37.14A.47.47,0,0,1,3.07,2.61ZM3,3.47V6.25H2.09V3.47ZM6.34,4.66V6.25H5.42V4.76a.81.81,0,0,0-.11-.46A.4.4,0,0,0,5,4.13a.45.45,0,0,0-.3.1.6.6,0,0,0-.18.24.68.68,0,0,0,0,.23V6.25H3.53q0-1.12,0-1.81t0-.83V3.47h.92v.4h0l.11-.16.16-.15A.73.73,0,0,1,5,3.45a1.11,1.11,0,0,1,.32,0,1,1,0,0,1,.77.32A1.34,1.34,0,0,1,6.34,4.66Z"/>
  </g>
  </g>
</svg>
