<svg xmlns="http://www.w3.org/2000/svg" viewBox="0 0 73.47 28.81"><title>logo</title><g id="Layer_2" data-name="Layer 2"><g id="Layer_1-2" data-name="Layer 1"><path d="M67,2.38A14.4,14.4,0,0,0,47.9,5.31a14,14,0,0,0-3.24-2.93A14.4,14.4,0,0,0,25.57,5.31a14,14,0,0,0-3.24-2.93,14.41,14.41,0,1,0-7.92,26.44,14.31,14.31,0,0,0,7.92-2.38v2.38h6.48V14.41a7.92,7.92,0,0,1,15.85,0V28.81h6.48V14.41a7.92,7.92,0,1,1,15.85,0V28.81h6.48V14.41A14.37,14.37,0,0,0,67,2.38Zm-52.58,20a7.92,7.92,0,1,1,7.92-7.92A7.92,7.92,0,0,1,14.41,22.33Z"/></g></g></svg>