<svg xmlns="http://www.w3.org/2000/svg" viewBox="0 0 36 36">
  <title>treehouse</title><g id="Layer_2" data-name="Layer 2">
  <g id="Layer_1-2" data-name="Layer 1">
    <circle class="background-circle" cx="36" cy="36" r="36"/>
    <circle class="treehouse" cx="36" cy="36" r="36"/><path class="cls-2" d="M52.56,25.61c-.49-.24-1.58-.73-2.8-1.46s-3.41.49-4.75,2.56L42.7,30.6a4.85,4.85,0,0,0,.37,5.11l.12.12a40.4,40.4,0,0,0,2.92,3.41,3.19,3.19,0,0,1,.61,1.1,2.49,2.49,0,0,1-1.83,3.16,2.83,2.83,0,0,1-3.29-1.83,3.37,3.37,0,0,1-.12-1.1,2.58,2.58,0,0,0-1-2.31c-.85-1-2.56.85-3,2.56v.12a14.54,14.54,0,0,0-.73,3.41.42.42,0,0,0,.12.24,2.84,2.84,0,0,1-1.22,3.89,3,3,0,0,1-4-1.22,2.84,2.84,0,0,1,1.22-3.89c.12,0,.12-.12.24-.12a9,9,0,0,0,.73-1.7c.24-.85.49-1.58.49-1.58s0-.24.12-.24l1.46-5.11-1.46,3c-.24-.61-.49-.61-1.22-.12a12.94,12.94,0,0,0-1.34,1.1,5.83,5.83,0,0,0-1.34,1.83,2.18,2.18,0,0,1-.61.85,2.54,2.54,0,0,1-3.65-.37,2.38,2.38,0,0,1,.49-3.41,2.19,2.19,0,0,1,1.1-.49,28.91,28.91,0,0,0,4.26-2.43,2.65,2.65,0,0,0,.61-.49l3.53-2.56-3.16,1.7h-.73c-1,.12-2.19.24-2.43.61-.12.12-.24.37-.49.49a2.87,2.87,0,0,1-3.29-.73,2.29,2.29,0,0,1,.49-3.16A3,3,0,0,1,28.22,30a19.93,19.93,0,0,0,4.87.12l.49-.12a7.59,7.59,0,0,0,4.87-3.53s.85-1.58,1.95-3.29,1-3.77-.12-4.5L38.2,17.46a4.38,4.38,0,0,0-3.89,0L19.94,25.37A4.33,4.33,0,0,0,18,28.77V44.35a3.91,3.91,0,0,0,1.95,3.16l14.48,8a4.38,4.38,0,0,0,3.89,0l14.24-8.15a3.91,3.91,0,0,0,1.95-3.16V28.77a3.91,3.91,0,0,0-1.95-3.16Z"/>
  </g>
  </g>
</svg>
