<svg xmlns="http://www.w3.org/2000/svg" viewBox="0 0 8.38 8.38">
  <defs></defs><title>twitter</title>
  <g id="Layer_2" data-name="Layer 2">
    <g id="Layer_1-2" data-name="Layer 1">
      <circle class="background-circle" cx="4.19" cy="4.19" r="4.19"/>
      <path class="twitter" d="M6.4,2.82a1.9,1.9,0,0,1-.45.47s0,.07,0,.12a2.57,2.57,0,0,1-.11.73,2.63,2.63,0,0,1-.32.7A2.74,2.74,0,0,1,5,5.42a2.3,2.3,0,0,1-.72.41A2.65,2.65,0,0,1,3.37,6,2.51,2.51,0,0,1,2,5.58H2.2A1.77,1.77,0,0,0,3.32,5.2a.91.91,0,0,1-.85-.63h.17a.94.94,0,0,0,.24,0,.89.89,0,0,1-.52-.31.88.88,0,0,1-.21-.58h0a.9.9,0,0,0,.41.11.9.9,0,0,1-.29-.32.91.91,0,0,1,0-.89,2.57,2.57,0,0,0,.83.67,2.52,2.52,0,0,0,1,.28,1,1,0,0,1,0-.21A.91.91,0,0,1,5.7,2.68a1.78,1.78,0,0,0,.57-.22.88.88,0,0,1-.4.5A1.8,1.8,0,0,0,6.4,2.82Z"/>
    </g>
  </g>
</svg>
